<?xml version="1.0" encoding="utf-8"?>
<!-- Generator: Adobe Illustrator 22.1.0, SVG Export Plug-In . SVG Version: 6.00 Build 0)  -->
<svg version="1.1" xmlns="http://www.w3.org/2000/svg" xmlns:xlink="http://www.w3.org/1999/xlink" x="0px" y="0px"
	 viewBox="0 0 360 360" style="enable-background:new 0 0 360 360;" xml:space="preserve">
<style type="text/css">
	.st0{fill:#FFFFFF;}
	.st1{fill:#0274D8;}
	.st2{fill:#020000;}
</style>
<g id="Layer_1">
</g>
<g id="Layer_2">
	<g>
		<g>
			<path class="st0" d="M62.8050308,176.8189697c3.9287491,1.2641602,8.212883,1.8536835,13.4826813,1.8527069
				c0.4930344,0,0.987442-0.0048828,1.4818573-0.0136719c4.3736191-0.0802307,8.7477036-0.4491577,12.9774323-0.8062134
				c0.063797,0.2511597,0.0483551,0.1904602,0.1122208,0.4416199c-5.3531189,2.9515076-10.1282425,6.8678894-14.2456207,11.7261047
				c-1.703804,2.0109406-4.0737534,5.1816559-4.9797287,9.483429c-0.8056412,3.8265228,0.9170761,7.4663391,4.1893234,8.8517609
				c1.4068222,0.5953674,2.8468933,0.8974609,4.2799911,0.8974609c0.5860062,0,1.1743698-0.0517731,1.7507782-0.1544647
				c3.6474075-0.6490936,7.1913376-1.8673553,10.5331039-3.620285c2.2166061-1.1634216,4.4576492-2.6006012,6.8511276-4.3935852
				c0.2934952-0.2200317,0.6150436-0.447052,0.9451523-0.6794739c-0.7159576,0.5040741-0.9320984,5.359726-1.1052856,6.4584503
				c-1.1949234,7.5809937-1.4711227,15.26297-1.7075882,22.9218903c-0.2097321,6.7929077-1.0940933,13.9467468,0.7903671,20.5809479
				c1.8528519,6.5229645,7.906456,9.956131,12.9371872,13.8145599c18.2999954,14.035553,58.0387955,17.3061523,96.0417709,10.396698
				c18.1389923-3.2978821,50.5460205-18.9992065,51.7035828-40.0793915l1.3728333-25.0126038
				c3.9554443,2.5711517,8.2920532,4.4874725,12.8017578,5.6342926c0.8609009,0.2189178,1.8930054,0.4428711,3.0227661,0.4428711
				c2.9343567,0,4.7058105-1.541687,5.6753235-2.835144c2.0320435-2.7102661,2.3533936-6.5680389,0.818512-9.8247223
				c-3.4202576-7.2687683-8.5823059-13.4684448-14.8934326-18.0067139c0.2757568-0.003479,0.5516968-0.0054474,0.8265991-0.0166016
				l1.4768677-0.0597229c10.9962158-0.4331055,26.0565491-1.0275116,34.8927612-10.6800385
				c4.4535828-4.8628235,6.7590942-12.706604,6.8548279-23.3153534c0.0625916-7.1360779-0.8590698-14.3600464-1.6702271-19.8564911
				c-0.7402039-5.0193787-7.9283447-49.0388718-31.9059448-49.0388718c-0.4078979,0-0.8212891,0.0136719-1.2383728,0.0400467
				c-2.4343872,0.158371-4.0751343,1.269043-4.8770752,3.3025818c-0.4760437,1.2114105-0.9179382,3.6007538,1.4786987,5.9861908
				c3.9416199,3.9264221,6.6089478,8.7325974,8.1539307,14.6943741c3.4518127,13.3091049,3.7409058,23.9352798,0.8139343,29.9196701
				c-4.0834351,8.3483276-14.1902466,9.4629059-23.1065369,10.4474335l-1.1030884,0.1222382
				c-1.1011658,0.1220856-2.2032471,0.2335815-3.3062744,0.3450623c-1.4105682,0.142746-2.822052,0.2854767-4.2317047,0.4516602
				c-0.9325714,0.1099548-1.8228455,0.2402802-2.5282898,0.3518982c-1.182251,0.1869812-2.3842163,0.0366974-3.4829559-0.4628296
				c-0.5241089-0.2381744-1.0767365-0.5352325-1.5552521-0.890213l-0.1574249-0.1163635
				c-0.9060364-0.6715698-1.7880859-1.3247223-2.5163422-2.0120544c0.7172089,0.0919647,1.4372406,0.2024689,2.0835571,0.3020935
				c1.2365265,0.1897583,2.1306,0.3276215,2.8312531,0.3276215l0.2089996-0.0039062
				c0.5597839-0.0226135,1.7254181-0.0704651,2.8901978-0.8497467c1.8340759-1.234726,2.6755981-3.7326202,2.0458374-6.0819244
				c-1.4823761-5.4975433-8.3676147-9.4160156-14.1994324-12.2160034c-5.0373383-2.4197617-9.636322-2.972168-14.4140167-3.366066
				c1.5413208-1.6435471,2.6876373-3.3740158,2.6489258-5.4467621c-0.0266724-1.4038315-0.6113586-2.6718979-1.6462402-3.5693665
				c-0.6629333-0.5748672-1.8101654-1.2592697-3.5107422-1.2592697c-0.698822,0-1.3313293,0.1114807-1.8561707,0.219902
				c-2.1443939,0.4400787-3.5862427,1.2114105-4.6395111,1.7745667c-0.9474335,0.5065002-1.2724609,0.6666794-1.804657,0.6666794
				c-0.3940735,0-0.904129-0.0888824-1.5164185-0.2659454c-12.0771637-3.477417-21.5284729-5.029007-30.6464081-5.029007
				c-1.9114227,0-3.8246765,0.0733948-5.6873474,0.2159958c-7.6843719,0.5935669-13.830246,2.1147461-19.339859,4.7887344
				c-2.2926331,1.1115036-4.4185638,1.6756363-6.31987,1.6756363c-0.3756256,0-0.7503815-0.0224686-1.1140442-0.0654449
				l-0.3020325-0.0351562l-0.3038177,0.0184174c-0.3553772,0.0225983-0.6969757,0.0284653-1.0275269,0.0284653
				c-0.2946625,0-0.5819244-0.0050278-0.8627319-0.0097733c-0.3057098-0.0050201-0.6058502-0.0097656-0.9004517-0.0097656
				c-0.7062378,0-1.6444702,0.0244217-2.6369781,0.2150192c-7.1807556,1.3764801-12.0164032,4.0055389-14.3720932,7.8136444
				c-1.5822525,2.5584564-1.8856659,4.8374329-0.9013748,6.7742615c0.4934921,0.9707336,1.4386215,2.0833588,3.238678,2.5574799
				c-3.6797409,2.9398041-7.4887772,6.2453156-10.6380997,10.4337769c-0.6474915,0.8607635-1.2666779,1.746521-1.8800049,2.6374207
				l-3.5210037,0.6161804c-3.0006332,0.5249176-6.032608,0.790863-9.0111694,0.790863
				c-2.4546432,0-4.9668427-0.179718-7.4675522-0.5356598c-4.9010086-0.6980743-8.5792999-2.0403748-11.5753403-4.2246094
				c-4.7039719-3.4316406-6.5343781-7.9240112-5.7600708-14.1398773c0.6551208-5.261879,2.3975525-10.461113,5.3263702-15.8930817
				c3.2041855-5.9422455,7.4519196-11.7916946,13.4062729-18.4505692c0.6675415-0.7459412,1.6762009-1.8732147,2.1439438-3.5900192
				c0.5513687-2.0287933,0.1726608-4.0506058-1.0359344-5.6038742c-0.8748322-1.1243515-2.1585922-1.8585663-3.5297394-1.9436798
				c-0.8525543-0.0530243-1.5719299,0.118187-2.2214661,0.3059921c-4.2855759,1.2495117-7.83358,3.6339722-10.738945,5.8034058
				c-6.8672333,5.1279373-13.0600204,11.6069565-19.4894753,20.3921585
				c-11.0279694,15.0679016-15.627018,31.5837173-13.6690826,49.0889664
				C49.7265472,167.7530365,54.8518028,174.2605133,62.8050308,176.8189697z M230.4460144,166.839386l-0.375824,0.0867767
				c-0.0382996-0.2874298-0.065033-0.5801697-0.108139-0.8653717
				C230.1297302,166.3112488,230.2853088,166.5792999,230.4460144,166.839386z"/>
			<path class="st1" d="M279.1545105,203.6824951c-4.2076111-8.9390106-11.4179688-16.2193146-20.0058594-20.289505
				c-0.8768921,1.2603302-0.6750793,3.514801,0.6137085,4.2781525c1.2845154,0.7608032,2.2581787,1.4053192,3.5630188,2.1373596
				c4.6491394,2.6081696,9.1800537,7.3721161,10.7552795,11.6830139c0.361969,0.9906616-0.9492493,1.6856384-1.5133362,0.8079376
				c-3.8252869-5.9518433-8.1486511-10.5971375-14.821167-13.1018066
				c-0.9370728,4.6077576-3.1654053,8.9103546-6.3279877,12.2185364c-1.3427124,1.4047241-3.0192871,2.7219391-5.3641815,1.2156067
				c-1.1798096-0.7578888-2.0475616-1.9608612-2.5635071-3.3186798c-4.1672211-10.9669342-8.3344269-21.9337921-12.5015717-32.90065
				c0.3216858,7.6564331,0.2753296,15.6050568-3.6121826,22.7435303c-1.2532806,2.3013458-3.3598022,4.0248718-5.8226166,4.5027618
				c-4.669281,0.9060211-7.7054901-2.9350433-9.9715881-6.608429c-4.5368195-7.3547668-8.0216522-15.4395905-10.2983246-23.8927765
				c-1.721756,2.5122528-3.6174164,5.1645508-6.3875427,6.1651917c-2.7701721,1.0006409-6.5431976-0.645874-6.7108307-3.7477722
				c-3.4940033,3.7194672-5.4331665,8.8900909-10.0305023,11.5856934c-1.7145538,1.0053253-3.7361755,1.3937683-5.6246643,0.8423462
				c-4.8578491-1.4184875-5.7680054-7.533844-6.0125885-12.5707855c-0.1688385-3.4769592-0.3377838-6.9537964-0.5064545-10.4308777
				c-0.1482391-3.0552063-1.2236938-3.9348602-3.9961853-2.7226868
				c-13.3571014,5.8397522-23.78508,19.6202393-27.1631622,34.3795013c-0.8071289,3.5265656-1.4160767,7.447998-4.0187378,9.8001556
				c-2.6026611,2.3521423-7.8751526,1.1156311-7.7517166-2.5111542c-1.7126694,5.4073639-3.4894485,10.9427795-7.0447006,15.2659454
				c-0.6817703,0.8290405-1.4821091,1.5596924-2.4237671,2.0196838c-3.2676697,1.5962219-5.4132156-0.7470551-6.8585434-3.1081085
				c-1.4824524-2.4217072-2.2186966-5.1956329-3.2423401-7.8217926c-2.2879181,8.0444489-2.9670868,16.426651-3.336525,24.7483063
				c-0.3469315,7.8148193-1.3147736,15.9363861,1.1012268,23.5341187c0.7327881,2.3046112,2.2782822,4.2094727,3.9012299,5.9258881
				c5.0263672,5.3158264,11.1638718,9.4406128,17.8396606,11.9891663
				c-3.3687134-21.3716125,5.7928619-44.406723,22.5686188-56.7446594
				c16.7756958-12.3379364,40.3052826-13.3459167,57.9625702-2.4831543s28.5367737,33.0392303,26.8004608,54.6294556
				c0.035675-0.4434814,3.0624542-2.0534668,3.5155029-2.3763428c1.1535492-0.8222046,2.2883453-1.6740112,3.403183-2.5542908
				c2.2993927-1.8156433,4.513855-3.7524109,6.6326752-5.8007507c3.6243286-3.5038452,8.6968994-7.9259644,10.4580231-12.9206238
				c0.5465088-1.5500946,0.6427765-3.2313232,0.7334747-4.8835754c0.5833893-10.6305695,1.1667786-21.2611389,1.7502441-31.8918152
				c4.8352661,4.3562469,10.6447449,7.4850311,16.8114319,9.0539398c1.7495117,0.4451141,3.7199707,0.7456512,5.0809631-1.0694275
				C279.9544373,207.8330994,280.0296326,205.5416565,279.1545105,203.6824951z"/>
			<path class="st1" d="M254.4537506,170.9266052c-1.1712341-5.8261261-3.399231-11.4615936-6.9504089-16.1119843
				c-1.8987732-2.4865112-4.1392059-4.5573883-6.6039124-6.3855133c-2.230545-1.6544495-4.6545563-3.4000549-5.6061859-6.2494812
				c-0.6237183-1.8675995,0.4068756-2.9179077,2.1271667-2.967392c0.2026825-0.0256653,0.4067993-0.0239563,0.6109161,0
				c2.6490326,0.058548,6.2350464,0.8672028,7.2225189,0.8288269c0.3864746-0.0149078,0.7916565-0.0455933,1.1185608-0.2649536
				c0.5484161-0.3680878,0.7057495-1.1807861,0.527298-1.8431549c-1.1660461-4.3269196-8.7450714-8.1302948-12.2416992-9.809433
				c-5.4833221-2.6334763-10.4450684-2.804451-16.2707367-3.2857056c-2.7144165-0.2243729-4.044342-0.9637375-1.3526001-4.07798
				c0.6911163-0.799614,4.9804993-4.1884613,3.4275208-5.534462c-0.6542358-0.5670471-1.6077728-0.427002-2.4371643-0.2566376
				c-4.3979645,0.9036102-4.7705841,3.4947968-9.56987,2.1127396c-11.5047607-3.3129501-23.1243286-5.6173172-35.1424103-4.6903687
				c-6.2719879,0.4837036-12.3918304,1.677681-18.1177673,4.4557266c-3.120697,1.5141678-6.250061,2.2931213-9.3105621,1.9290619
				c-1.8885803,0.1186676-3.4541016-0.1269684-5.0037537,0.1701202c-3.8961639,0.7470627-9.7110138,2.4242477-12.026535,6.1671371
				c-2.9361877,4.7463303,2.2062378,3.8908768,5.1506042,3.0286942c2.1943207-0.6424484,4.3641968-1.3749695,6.5448761-2.0658112
				c0.4171448-0.1322327,0.7368774-0.1569214,1.0283356,0.2191162c-2.100235,3.5737457-7.6506042,6.2547607-10.8693542,8.8135681
				c-3.7431488,2.9757843-7.4179459,6.1551514-10.3497086,10.0536194
				c-6.2494965,8.3104248-10.5805359,17.6931152-13.3161316,27.8850708
				c-1.9777145,7.368576-2.9050064,14.864975-1.5082016,22.5180359c0.7150574,3.9178925,2.1365433,7.6880341,4.361824,10.9187317
				c0.2778854,0.4032898,0.5812683,0.8105011,1.0005417,1.0373077c5.1791458,2.8027344,9.7988358-19.6944122,10.3292313-22.8451843
				c0.1394882-0.8285828,0.1896667-1.6896667,0.5788498-2.4590912c0.4255447-0.8412781,0.8988037-1.0228882,1.5250092-0.2007904
				c2.1533508,2.827179,1.1198349,6.9424286,2.559967,10.1077576c0.2254028,0.4954376,0.5451279,1.0177612,1.0511246,1.1360474
				c0.7715149,0.1803894,1.3906479-0.6525879,1.773201-1.3865662c2.385498-4.5764771,3.4210815-9.5666199,5.342926-14.3270111
				c3.7250824-9.2272491,9.5993805-16.7003021,17.0232544-22.8412933c4.248291-3.5142212,8.7173309-6.628952,13.8941193-8.4177246
				c2.0755463-0.7173615,5.7778931-1.8204193,7.5839691-0.3529358c-0.9069214,2.0928192-1.6772766,4.0393677-2.0702057,6.3648682
				c-0.8685303,5.1407013-1.630661,10.4099731-0.835495,15.5640106c0.3251801,2.1078491,0.9949036,4.3090668,2.5779724,5.6269684
				c2.9785461,2.4796143,6.0714417-0.645752,7.8147888-3.1366119c3.9346008-5.6214752,6.6733093-12.0471954,10.4569702-17.7771912
				c0.2884216-0.4367828,0.6210938-0.9011688,1.1084442-1.0307159c0.6812286-0.1808624,1.3743591,0.4133148,1.6009674,1.1191864
				c0.8808594,2.7435913-3.9262543,11.6723938,0.194046,12.8722382c2.0176086,0.5875854,10.0499115-11.818924,9.5520782-12.3789978
				c0.2247772,0.2022552,0.3152924,0.4596252,0.3638,0.766983c1.71521,10.8836517,5.8059998,22.3558655,11.3651123,31.457962
				c0.8947144,1.46492,1.9546509,2.8071289,3.4316101,3.6821442c2.5552979,1.5138092,4.9124146,0.8183136,6.2869415-1.9009552
				c0.3945923-0.7805481,0.7374573-1.6144867,0.957901-2.4665375c1.9801941-7.6526947,1.9201813-17.4430847-0.4974823-24.9653931
				c-0.4443512-1.3826599,0.0744171-2.0482178,1.3684998-1.6985779c2.0544891,0.5548401,3.8870697,1.5603638,5.27771,3.3231049
				c2.0754395,2.6304169,3.5418091,5.6603394,4.8934326,8.7371826c4.0283051,9.1702881,5.8148499,19.3692169,10.4305725,28.2477875
				c0.2721863,0.5235443,0.6917572,1.1193085,1.2488556,1.0310822c0.3409576-0.053894,0.5922546-0.3562317,0.8069611-0.6425781
				C254.7768555,190.8816986,256.4020386,180.6182861,254.4537506,170.9266052z"/>
			<path class="st0" d="M172.0633392,277.7001038c-2.4910736,0.1220703-5.0822906,0.0111389-7.6839905,0.2138977
				c-3.3605804,0.2618713-6.7056732-0.2887573-9.9257812-1.3666077c-5.3385468-1.7869873-10.8535614-2.7749939-16.2642059-4.2203369
				c-3.3192444-0.8866882-6.5100708-2.3105469-9.7683716-3.4619446c-1.1137695-0.3936157-1.5459137-1.2981567-1.7070084-2.3935242
				c-2.436821-16.5688782,1.0906143-31.3941345,11.4085312-44.2754059
				c8.085556-10.0942841,18.2403412-16.2462769,30.591095-18.1476593
				c9.0147552-1.3877716,17.8661194-0.5982056,26.3811798,3.0301971c5.5090637,2.3475037,10.4409943,5.7297821,14.8476715,9.9405365
				c6.4487762,6.1620789,11.3323212,13.4668732,14.1020966,22.263916c1.3849335,4.3985901,2.1665497,8.9161224,2.6252136,13.5358429
				c0.3040619,3.0626831-0.0202789,6.0856476,0.0422821,9.1258087c0.0332642,1.6165161-0.9229584,2.6513367-2.2561035,3.3017883
				c-8.4346924,4.1152344-17.1176147,7.5027771-26.0930634,10.0332336c-1.9008026,0.5358887-3.8654175,0.800415-5.7982788,0.8347473
				c-3.2954559,0.0585022-6.5065002,0.7257996-9.7515259,1.131897
				C179.2701416,277.6899414,175.723053,277.7684937,172.0633392,277.7001038z"/>
			<path class="st2" d="M307.9347839,149.8779297c-0.0710754,8.0206451-1.4447327,15.9062042-5.8451843,20.7129822
				c-8.2044067,8.9619904-22.9768982,9.1440125-33.9524841,9.5953522c-2.4692078,0.101532-4.9542542-0.1854858-7.4301758-0.3318634
				c-1.2231445-0.0723114-1.7937622-0.8597717-2.0083313-2.1102295c-0.4672241-2.7229309-0.4943542-5.492218-0.8423157-8.2255402
				c-0.782959-6.1505585-3.4257965-11.4232788-6.858902-16.3203278c-0.3103027-0.442627-0.644989-0.8731995-0.9006805-1.3502655
				c-0.5500641-1.0263977-0.2910919-1.6312408,0.8031006-1.760025c2.5028839-0.2945862,5.0133972-0.5153351,7.5179749-0.7952881
				c9.809845-1.0965424,21.8391724-2.0402985,26.9988403-12.5880585c4.3720398-8.9380188,1.8768921-23.3496552-0.5397949-32.6691971
				c-1.6481934-6.3560638-4.5969543-11.9109573-9.1528625-16.4489746c-0.4876404-0.485733-0.9285889-1.0021973-0.6273499-1.7672958
				c0.3302917-0.8387985,1.0656738-0.9355164,1.8056335-0.9834061
				c18.6911621-1.2087631,27.2073059,30.9058456,29.4055176,45.8067551
				C307.0803528,135.8798218,307.9963684,142.9295654,307.9347839,149.8779297z"/>
			<path class="st2" d="M112.7527466,149.7892303c-1.5925674,3.3142395-3.1105118,6.388092-4.4091415,9.577301
				c-1.3008347,3.1946411-2.5829239,6.3996277-3.4589462,9.7539825c-0.5861893,2.2445679-2.0081406,3.2381439-4.0191193,3.3158569
				c-7.7962723,0.3013-15.5463486,1.3847198-23.3500519,1.5272369c-4.6896591,0.0856476-9.3244324-0.213913-13.8700447-1.6766357
				c-6.5932808-2.1216278-10.7467804-7.4431152-11.5559082-14.6783752
				c-1.9498634-17.4357147,2.949501-32.6644821,12.9444084-46.3202515
				c5.4298172-7.4186172,11.4561691-14.1911469,18.7255707-19.6190643c2.9740372-2.2206573,6.0720139-4.2117691,9.631958-5.2486343
				c0.7309418-0.2128983,1.4001465-0.3618393,1.9669266,0.2850037c0.5626831,0.6421585,0.6804199,1.4209137,0.4527817,2.2572708
				c-0.2310486,0.848938-0.7914352,1.4598846-1.3432465,2.0770187
				c-5.2474899,5.8687057-10.0730133,12.0810318-13.8753662,19.1331024
				c-2.9066849,5.390892-4.9960785,11.0854111-5.7670898,17.2771912
				c-0.9298096,7.4670486,1.3995438,13.4680405,7.2757568,17.7539749c3.9371719,2.8716583,8.439682,4.1905212,13.1196671,4.8565369
				C100.9978409,150.8828735,106.7742691,150.8348083,112.7527466,149.7892303z"/>
			<path class="st1" d="M102.2062759,192.8315582c0.1732559-0.2192841,0.3301697-0.4438782,0.4671097-0.6741333
				c-0.0019608-2.8672638,0.0003433-5.7340393-0.0127182-8.6005554c-0.0063324-1.3907318-0.1908798-1.5340881-1.4044571-1.0754395
				c-6.8884125,2.6030426-12.3144836,7.1093597-15.9811096,13.8929138
				c-0.4178925,0.7732239-0.7837067,1.5811462-1.2413101,2.3261261c-0.3733521,0.6078644-0.938736,0.5809784-1.4778824,0.2347565
				c-0.5207291-0.3342285-0.4770508-0.8120728-0.2416306-1.3286438c2.0323868-4.4592743,4.7947388-8.310318,8.4435196-11.4202728
				c3.1494064-2.6841888,6.619339-4.7336273,10.4926605-6.0001984c1.252243-0.4095306,1.8701706-1.4408417,1.6386032-2.5671234
				c-0.1034622-0.5028839-0.3030319-0.8796539-0.9004669-0.7221222c-0.8489075,0.2237549-1.7245255,0.3559875-2.5519104,0.645752
				c-7.958992,2.7876892-14.7586136,7.480011-20.3664169,14.0971222c-1.9181595,2.2633057-3.5110779,4.7370605-4.1514435,7.7788239
				c-0.4211121,2.0003204,0.3451004,3.7955627,2.0306091,4.50914c1.3168106,0.5573883,2.7213211,0.7761383,4.1222076,0.5270844
				c3.3287125-0.5918579,6.5075684-1.6878204,9.5433731-3.2808075c2.2301178-1.1702118,4.3445663-2.5707397,6.3753586-4.0928955
				C98.5984955,195.8757477,100.8806305,194.5093536,102.2062759,192.8315582z"/>
			<path class="st2" d="M176.5161285,243.4502106c2.255188-0.3127441,5.9512177-0.9580078,9.3513794-2.828476
				c6.2468872-3.4365234,12.0437317-7.5848541,17.47052-12.3360901c1.8318634-1.6038208,2.9498444-3.6549377,3.6465302-5.99263
				c0.4935303-1.6559906-0.2215576-3.2036133-1.6919708-3.8801727c-2.567276-1.1812134-5.080368-1.0955353-7.6397705,0.1677704
				c-4.7007904,2.3202667-8.9725647,5.3489532-12.8344421,8.9647827c-3.0240021,2.8313293-5.7481689,6.0290985-7.9614868,9.6367493
				c-1.3236237,2.1575012-1.2965088,2.2880707-2.9510803,0.4808502c-5.1674652-5.6441803-11.4691925-9.074646-18.6159973-10.8365631
				c-1.3860016-0.3417053-2.8679962-0.2174225-4.2879028-0.4375305c-1.8868256-0.2925415-3.8374023,0.7708435-4.9895782,2.8651581
				c-0.7435455,1.3515625-0.3708038,3.1289673,0.9985809,4.6993866c1.7009583,1.9506226,3.7802887,3.3124542,6.0430756,4.4019318
				C160.0383759,241.7182159,167.4114838,243.2277679,176.5161285,243.4502106z"/>
			<path class="st2" d="M197.8429718,197.3318176c3.3005829,0.1925049,5.9214478-2.2071533,6.0973816-5.5828094
				c0.1938934-3.7195892-2.105011-6.5938873-5.455719-6.8212433c-3.1675262-0.21492-6.054245,2.5726624-6.2062683,5.9931335
				C192.1250458,194.3707428,194.5273743,197.1384277,197.8429718,197.3318176z"/>
			<path class="st2" d="M161.0628357,189.3980865c0.1500854-3.4877625-2.2578583-6.3297882-5.4998474-6.491272
				c-3.2370758-0.1612396-6.0010071,2.449234-6.1758881,5.8329926c-0.1837921,3.5563049,2.2236176,6.3414307,5.6309662,6.5144653
				C158.3561401,195.4237823,160.9100037,192.9496002,161.0628357,189.3980865z"/>
			<g>
				<g>
					<path d="M188.5009003,264.1802063c-6.3824768,0.0005188-10.7531738-5.3531189-12.541214-8.0343933
						c-4.840271,9.1435242-12.6001587,8.7220764-16.1891479,7.1083679
						c-0.4852142-0.2173157-0.7236938-0.8428955-0.5330963-1.3969421c0.1896667-0.5535278,0.7356567-0.8234558,1.2208862-0.6098328
						c0.3885345,0.1731262,9.4227142,4.0061646,14.5686493-7.6229401c0.1556091-0.352005,0.4677277-0.5777283,0.812088-0.5903473
						c0.3830261-0.02211,0.6684418,0.1925659,0.8433838,0.5319366c0.0138092,0.0284119,1.494339,2.8759613,4.1552429,5.2457733
						c3.4711304,3.0927429,7.2470398,3.9630127,11.2162933,2.5881653c0.5008698-0.1746826,1.024765,0.1499634,1.175766,0.71875
						c0.151001,0.5698242-0.1307373,1.1712036-0.6288605,1.3437805
						C191.1553497,263.9629211,189.7871552,264.1802063,188.5009003,264.1802063z"/>
				</g>
				<g>
					<path d="M175.8685303,255.1882019c-0.5211334,0-0.9428253-0.4824829-0.9428253-1.0775757v-11.1655579
						c0-0.5950928,0.4216919-1.0775757,0.9428253-1.0775757s0.9428253,0.4824829,0.9428253,1.0775757v11.1655579
						C176.8113556,254.705719,176.3896637,255.1882019,175.8685303,255.1882019z"/>
				</g>
			</g>
		</g>
	</g>
</g>
<g id="Layer_3">
</g>
</svg>
