<?xml version="1.0" encoding="utf-8"?>
<!-- Generator: Adobe Illustrator 22.1.0, SVG Export Plug-In . SVG Version: 6.00 Build 0)  -->
<svg version="1.1" xmlns="http://www.w3.org/2000/svg" xmlns:xlink="http://www.w3.org/1999/xlink" x="0px" y="0px"
	 viewBox="0 0 360 360" style="enable-background:new 0 0 360 360;" xml:space="preserve">
<style type="text/css">
	.st0{fill:#FFFFFF;}
	.st1{fill:#0274D8;}
	.st2{fill:#020000;}
</style>
<g id="Layer_1">
</g>
<g id="Layer_2">
	<g>
		<path class="st0" d="M263.5551147,131.5020599c10.2150879-0.3789062,24.2055664-0.898941,32.414093-9.3435135
			c4.1371765-4.254364,6.2789001-11.1166,6.3678589-20.3976822c0.058136-6.242981-0.7980347-12.5629425-1.5515747-17.3715515
			c-0.6876526-4.3912125-7.3651428-42.9020042-29.6394043-42.9020042c-0.3789062,0-0.7629395,0.0119743-1.1503906,0.0350685
			c-2.2614746,0.1385612-3.7856445,1.1102066-4.5306396,2.8892708c-0.4421997,1.059742-0.8527527,3.1501427,1.3736267,5.2371254
			c3.6616516,3.434967,6.1394958,7.6397209,7.5747375,12.8554611c3.2065735,11.6434784,3.4751587,20.939949,0.7561035,26.1753693
			c-3.7933655,7.3035736-13.1821899,8.2786407-21.4651184,9.139946l-1.0246735,0.1069183
			c-1.0229645,0.1069107-2.0467834,0.204422-3.0714569,0.3019257c-1.3103485,0.1248779-2.6215668,0.2497559-3.9310608,0.3951569
			c-0.8663635,0.0962677-1.6933594,0.2102432-2.3487396,0.3078461c-1.0982513,0.163559-2.214798,0.0321503-3.2355347-0.4048691
			c-0.4868622-0.2084427-1.0002441-0.4682999-1.4447479-0.7788239l-0.1462555-0.1017838
			c-0.841629-0.5876007-1.661026-1.1589584-2.3375854-1.7602463c0.6662903,0.0803986,1.3351593,0.1770477,1.9355927,0.2642899
			c1.1486969,0.1659393,1.9792023,0.2865372,2.6301117,0.2865372l0.1941528-0.0034256
			c0.5200348-0.0196686,1.6028748-0.0615768,2.684845-0.7432709c1.7037964-1.0802689,2.4855652-3.2656097,1.900528-5.3209457
			c-1.3770752-4.8094635-7.7731476-8.237587-13.1907501-10.6872253c-4.6794586-2.1169205-8.9517822-2.600174-13.3900452-2.94487
			c1.4318085-1.4377899,2.4966888-2.9517059,2.4607697-4.7649841c-0.0248108-1.228241-0.5679474-2.3375931-1.5293274-3.1227798
			c-0.6158295-0.5029297-1.6815491-1.1016464-3.261322-1.1016464c-0.6492004,0-1.2368011,0.0975037-1.7243347,0.1924438
			c-1.9920349,0.3848953-3.3314667,1.0597382-4.3099518,1.5524063c-0.880127,0.4430542-1.1820526,0.5833282-1.6764374,0.5833282
			c-0.3660736,0-0.83992-0.0778351-1.4087067-0.2326508c-11.2192383-3.0423737-19.9990997-4.399765-28.4693298-4.399765
			c-1.77565,0-3.553009,0.0641479-5.2833099,0.1890259c-7.138504,0.5191803-12.8477783,1.8500595-17.9660034,4.1893616
			c-2.1297455,0.972496-4.1046906,1.4660187-5.8709259,1.4660187c-0.3489685,0-0.6970825-0.0196762-1.0349274-0.057312
			l-0.2805481-0.0307846l-0.2822571,0.0162506c-0.3301544,0.0196686-0.6474762,0.0248032-0.9545441,0.0248032
			c-0.2736969,0-0.5405579-0.0042801-0.8014221-0.0085526c-0.2839661-0.0042801-0.5628052-0.0085526-0.8365173-0.0085526
			c-0.6560211,0-1.5275879,0.0213776-2.4496307,0.1881638c-6.670639,1.2042923-11.1627808,3.5042496-13.35112,6.8357239
			c-1.4698639,2.2383728-1.7516937,4.2321243-0.8373566,5.9265137c0.4584503,0.8493347,1.336441,1.8226852,3.0085907,2.2375183
			c-3.4182892,2.5719452-6.956749,5.4637833-9.88237,9.1279755c-0.6015091,0.7531128-1.176712,1.5280304-1.74646,2.3074417
			l-3.2708511,0.5390625c-2.7874908,0.4593048-5.6040573,0.6919556-8.3710175,0.6919556
			c-2.2802887,0-4.6140289-0.1573792-6.9370728-0.4687195c-4.5528717-0.6106949-7.9698792-1.7850494-10.7530899-3.6958313
			c-4.3698273-3.0021744-6.0702057-6.932373-5.3508835-12.3704987c0.6085587-4.6033325,2.2272568-9.1519241,4.9480286-13.9040833
			c2.9765167-5.1986389,6.9225311-10.316021,12.4538879-16.1416054c0.6201096-0.6526108,1.5571136-1.6387939,1.9916153-3.1407356
			c0.5122299-1.7748718,0.1604462-3.5436668-0.9623337-4.9026794c-0.8126526-0.9836426-2.0052261-1.6258621-3.2789612-1.7004013
			c-0.7919846-0.0463486-1.4602737,0.1034203-2.0636978,0.2677231c-3.9810867,1.0930977-7.2770615,3.1792259-9.9760284,5.0771828
			c-6.3794022,4.4861526-12.1322861,10.1543579-18.1049881,17.8402672
			c-10.2445984,13.1821976-14.5169258,27.6311188-12.6980858,42.9456253
			c0.9130554,7.6876221,5.6741943,13.3806305,13.0624504,15.6190033c3.6496506,1.1059265,7.6294556,1.6216888,12.5248795,1.6208344
			c0.4580231,0,0.9173355-0.0042801,1.3766403-0.0119781c4.0629196-0.0701752,8.1262741-0.392952,12.055481-0.7052994
			c0.0593033,0.2197495,0.04496,0.1666031,0.1042633,0.3863525c-4.9728012,2.5822067-9.4087067,6.0083542-13.2335968,10.2586288
			c-1.5827713,1.7593842-3.7843704,4.5331879-4.6259995,8.2966003c-0.7484055,3.3477173,0.8518982,6.5320892,3.8917007,7.7440643
			c1.3069305,0.5208893,2.6446533,0.7851868,3.9759598,0.7851868c0.5444107,0,1.0909576-0.0453339,1.6263885-0.1351318
			c3.3883514-0.5679321,6.680481-1.633667,9.7848663-3.1672516c2.0591812-1.0178375,4.1410294-2.2751617,6.3644409-3.843811
			c0.2726822-0.1924438,0.5713501-0.391098,0.8783569-0.5946655c-1.4167328,5.4823914-1.6420517,11.0563049-1.8542786,16.4497375
			l-0.0530319,1.3257446c-0.0680008,1.664444-0.1522446,3.3314667-0.2369232,4.9984894
			c-0.1992874,3.9420776-0.405838,8.0175629-0.3908844,12.0666351c0.0176468,4.7782593-0.6689987,9.52211-0.7424164,14.2969055
			c-0.0419083,2.7259064-0.0816803,5.300415,0.0945129,7.9707184l0.0218124,0.3113403
			c0.0209503,0.287384,0.0491791,0.6816864,0.0500336,0.7389984c-0.0004272,0-0.0243759,0.0436249-0.102211,0.1300049
			c-5.088295,5.6690674-9.0916214,11.8709869-11.8992157,18.4330139c-1.544281,3.6103058-3.1330338,7.9715729-3.2057343,12.9478302
			c-0.0671463,4.6486664,1.1303024,8.3855591,3.6611938,11.4253693c2.3974609,2.8790131,5.5476074,4.4006195,9.1100159,4.4006195
			c0.7877502,0,1.6003036-0.0769806,2.415184-0.2275543c2.7641296-0.5119324,5.2141876-1.9322205,6.9672394-4.1376953
			c-0.6371841,0.9607697-0.2718582,2.2433624,0.1461716,3.3177948c3.857399,9.914444,8.8751221,17.2840424,17.7154922,25.524765
			c2.3059845,2.1495667,8.9346619,6.5383606,8.9346619,6.5383606c-1.0623016,5.2533569-1.9928741,11.890625-0.9579468,18.6938171
			c0.7920227,5.2063599,2.801178,9.2665405,6.1429138,12.4124146c2.3418579,2.2050171,5.4612122,3.4204407,8.7841339,3.4204407
			c3.6813049,0,7.1838379-1.4668884,9.3683167-3.9233704c1.9048004-2.1400146,3.2527924-4.6837158,4.2406921-8.0049438
			c1.0545959-3.5444336,1.6524658-7.4113464,1.8380737-12.009552c3.4546356,0.7911682,7.1915283,1.2179871,11.3287201,1.2966614
			c0.4781189,0.0094299,0.9553833,0.0137024,1.4335175,0.0137024c2.7874908,0,5.5219421-0.1607971,8.1614685-0.4789734
			c-0.1462708,2.4205627-0.1360016,4.5006714,0.0247955,6.4970093c0.3814697,4.7427368,0.957962,9.3417969,3.7856445,13.4789734
			c2.3418732,3.4255676,6.2575226,5.4697876,10.4751129,5.4689331c2.97052,0,5.852951-1.0340881,8.1144257-2.912384
			c4.1756744-3.4648743,6.5868225-8.1588745,7.5883942-14.7722168c0.7781219-5.1372986,0.7561188-10.689209-0.0718536-16.9371643
			c0,0,8.8223267-5.3145752,9.8032074-5.878479c7.4141693-4.2622986,13.9956665-10.3100586,17.4578857-18.270752
			c0.459137-1.0556946,4.977829-12.4770355,4.3920593-12.6647949c1.2748718,0.4087524,2.6132507,0.6665955,3.9555511,0.6665955
			c0.7920227,0,1.5866241-0.084671,2.3606873-0.2523193c4.666626-1.0075684,7.9792786-4.0585022,9.8464355-9.0672455
			c2.0724487-5.562149,1.1717834-10.8813934,0.1556702-14.8945465c-1.1093445-4.377533-2.8311157-8.838028-5.1165161-13.2574615
			c-0.9725037-1.8774414-2.1134949-3.8626404-3.4888611-6.0693665c-0.3917389-0.6286469-0.7894592-1.2222443-1.1803436-1.804718
			c-1.060257-1.5826874-1.8982697-2.8320312-2.3842468-4.4463806c-2.2901917-7.6081543,0.2526093-15.3241425,0.6992645-22.9880219
			l1.2752838-21.8825073c3.6744537,2.2494965,7.7030182,3.9259186,11.8923798,4.9292145
			c0.7997131,0.1915894,1.7585449,0.3874512,2.8080139,0.3874512c2.7258911,0,4.3715515-1.3488312,5.2721863-2.480423
			c1.8876953-2.3709412,2.1862183-5.7460327,0.760376-8.595108c-3.1773376-6.3591003-7.9726868-11.7828979-13.8354797-15.7532959
			c0.2561646-0.0029907,0.5125427-0.0046997,0.7679138-0.0145416L263.5551147,131.5020599z M226.5133514,115.8482056
			c-0.035614-0.2514648-0.0604706-0.5076294-0.1005096-0.7571716c0.155777,0.2191772,0.3002777,0.453743,0.449585,0.6812592
			L226.5133514,115.8482056z"/>
		<path class="st1" d="M248.0829926,184.8858643c-0.0715332,1.7970581-0.3179474,3.2696838-0.2282257,4.754715
			c0.1720123,2.8469391,0.5145721,5.7262421,1.3385315,8.4652252c0.837616,2.7843628,2.4285889,4.6508331,3.9254761,7.0515594
			c1.1887817,1.9065552,2.3251495,3.8427734,3.3578796,5.8388977c2.0653076,3.9918976,3.7428894,8.1890717,4.8478088,12.5496979
			c1.0912781,4.3067474,1.5506592,8.6331329-0.0487976,12.9248505c-1.3200684,3.5422058-3.5578308,6.1491547-7.4424286,6.9882812
			c-4.9461365,1.0684509-9.8907776-2.8291168-10.0329132-7.8809052c-0.0487061-1.7314911,0.2076111-3.3900604,0.7373657-5.0366058
			c2.0061188-6.2352753,2.0248108-12.4038239-0.7393341-18.4525604c-0.5881958-1.2871399-1.2922668-2.5123291-2.1327057-3.650116
			c-0.433136-0.5863647-0.8778839-1.3337402-1.7926636-0.7170868c-0.9104614,0.6137085-0.5603333,1.3212891-0.0764771,2.0053711
			c1.875885,2.6522217,3.1137085,5.5667572,3.5930634,8.7869263c0.5733337,3.8515472,0.2162323,7.6239624-1.0124664,11.3160706
			c-0.9484253,2.8499298-1.1783752,5.7272186-0.3300171,8.6450653c0.4003601,1.3770142,1.0829468,2.6125183,2.0198517,3.6840515
			c0.4182892,0.4784241,0.5187225,0.932724,0.3785248,1.5176392c-1.272522,5.3097382-2.6448517,10.5827484-5.0737457,15.51828
			c-0.7526855,1.5294189-1.6134644,2.926178-3.1216278,3.8174133c-1.1704102,0.6916199-1.8445892,0.5884705-2.5005798-0.574707
			c-1.1202698-1.9864502-1.9835205-4.1122131-2.577774-6.3135986c-0.2947388-1.0918427-0.3694611-5.2849884-1.7373505-5.6070404
			c-0.6373444-0.1500702-1.1989136,0.4233246-1.578537,0.9568329c-3.0241547,4.25-3.9605713,9.5340881-7.0448151,13.7610168
			c-3.6307983,4.9749756-4.1935425-7.6117554-5.1527405-8.4645996c-1.9420013-1.7245331-2.68573,4.4916077-3.0290985,5.460022
			c-1.2242889,3.4529724-4.3664246,13.693634-9.4762573,12.8268127c-2.141983-0.3633728-2.5964966-4.9421082-3.0813446-6.5578613
			c-0.9037933-3.0119629-1.4684753-6.1106262-2.2337189-9.1578979c-0.2346649-0.9344482-0.6028442-1.8399048-0.7817383-2.7852783
			c-0.2879333-1.5185547-0.8308105-4.7983551-2.7256775-5.1794739c-1.8369904-0.3694763-2.5035248,2.0486145-3.0784302,3.3013306
			c-0.8394318,1.8291016-1.8126526,3.593689-2.7815247,5.3562622c-1.0867157,1.9769592-2.2570648,4.0422058-4.1833496,5.2163391
			c-0.5157928,0.3143921-1.1016998,0.5614014-1.7047272,0.526123c-0.9655762-0.0564575-1.7508698-0.820282-2.2376709-1.6560974
			c-1.0912323-1.8735962-1.8567963-3.9717102-2.3746796-6.0693665c-0.2480927-1.0049133-0.6326752-2.4199219-1.5202026-3.0709839
			c-0.3541718-0.2598114-0.8763275-0.344162-1.2262268-0.0786285c-0.2131042,0.1617126-0.3268127,0.4194641-0.4263763,0.6677856
			c-1.0244904,2.5554047-1.5617828,5.2932587-2.2548676,7.9486542c-0.741684,2.8415527-0.9898071,5.7092896-2.142807,8.4563293
			c-0.714798,1.7030029-1.2015533,1.7912903-2.5290985,0.5200806c-1.6889954-1.6173401-2.1195831-4.0602417-2.8256531-6.1946106
			c-1.1776276-3.559845-2.2068024-7.203125-3.4867554-10.7231445c-0.4820709-1.3257446-2.1873779-5.3826904-3.9342804-3.009552
			c-2.6453552,3.5709839-3.5801392,7.9860535-7.1843872,10.9324951c-1.0050964,0.8216858-2.4384155,0.3213196-3.0331116-1.081665
			c-0.8688354-2.0497437-1.7149048-4.1091614-2.580719-6.1601868c-0.1432953-0.3395081-0.3293915-0.6620483-0.5102081-0.9843292
			c-0.3312531-0.5903931-0.8187408-0.9967499-1.5159149-0.948761c-0.6882172,0.0473785-0.8067322,0.6659393-1.0060577,1.1863861
			c-1.094162,2.8569641-1.2980499,5.9296265-2.1520844,8.8461914c-0.4578857,1.5636292-0.7058258,3.1935425-1.533493,4.6330261
			c-0.5655823,0.9836731-0.8561554,1.0376587-1.7059326,0.3251343c-3.7706604-3.1616516-6.2810364-7.0881348-7.2732697-11.9449463
			c-0.1254578-0.6140747-0.2960052-1.2287292-0.5326996-1.8074951c-0.2242889-0.5484467-0.6604233-0.9374542-1.3112564-0.7880859
			c-0.6484985,0.1488495-0.8136597,0.6550598-0.8347855,1.2750854c-0.0732727,2.1500244,0.2327957,4.3157654-0.2188644,6.4485779
			c-0.1606674,0.7586975-0.3563766,1.523468-0.6536102,2.2364807c-0.4304276,1.0325317-1.0438461,1.1769104-1.912178,0.4766846
			c-1.1053848-0.8913269-2.0381775-1.9562073-2.8169861-3.1426086c-1.3620224-2.0748596-2.7544861-3.9847412-3.6730576-6.3167572
			c-1.9172974-4.867569-4.3083801-9.9645691-5.4989166-15.0619507c-0.9852295-4.2181854-1.9813919-9.3136749-1.7535858-13.6465302
			c0.2428513-4.6189117,1.5917587-8.8146515,4.4986801-12.4599915c0.2780304-0.3486633,0.5647964-0.6907349,0.8329849-1.046814
			c0.4337616-0.5759125,0.544693-1.2021332-0.0833511-1.6668854c-0.5864487-0.43396-1.1954193-0.2727966-1.6812897,0.2774353
			c-1.4851532,1.6818237-2.7422867,3.5179443-3.6734848,5.5619659c-2.4015656,5.2715149-2.6672592,10.7420349-1.4628601,16.3371887
			c0.4496384,2.0888214,0.6862183,4.1619415,0.0638962,6.2698212c-0.9749374,3.3022308-3.1133499,5.412796-6.4772949,6.03508
			c-3.3155212,0.613327-6.1988297-0.4189911-8.3785553-3.036499c-2.2232208-2.6697235-2.9445801-5.8393707-2.8947067-9.2582092
			c0.060379-4.138443,1.33815-7.9513245,2.9394379-11.6943359c2.7748718-6.4863281,6.633049-12.302597,11.3188095-17.5226746
			c1.1324539-1.2616119,0.9547195-2.3225555,0.8699951-3.6092682c-0.196846-2.9896393-0.1077805-5.9768524-0.0671768-9.1235352
			c0.8336563,0.5037537,1.1056061,1.2265625,1.5565643,1.7835541c7.3778839,9.1126862,20.932045,13.890564,31.7553329,17.2095795
			c12.9427643,3.9689636,26.5888672,5.6624603,40.1077881,4.8891754
			c24.5741119-1.4056396,50.423584-10.4075623,66.9615631-29.0059509
			C246.6746216,186.347702,247.274826,185.7424164,248.0829926,184.8858643z"/>
		<path class="st1" d="M272.1108093,148.0046692c-3.9087219-7.8203583-10.6068726-14.1895752-18.5847015-17.750412
			c-0.8145905,1.1026154-0.627121,3.0749512,0.5701294,3.7427673c1.1932526,0.6655884,2.0977325,1.2294617,3.3098907,1.8698883
			c4.3188782,2.2817841,8.5279236,6.4495392,9.9912415,10.2209625c0.3362732,0.866684-0.8818054,1.4746857-1.4058228,0.7068329
			c-3.5535583-5.207016-7.5697937-9.2709808-13.7683105-11.462204c-0.8704987,4.0311279-2.9405365,7.7952881-5.8784485,10.6894684
			c-1.2473297,1.2289276-2.8047943,2.3813019-4.9831238,1.0634766c-1.0960083-0.6630402-1.9020996-1.7154694-2.3813934-2.9033661
			c-3.8711853-9.5944824-7.7423706-19.1889191-11.6134949-28.7833481
			c0.2988434,6.6982803,0.2557678,13.6521835-3.3555756,19.8973312c-1.1642456,2.0133514-3.1211395,3.5211792-5.4089813,3.9392548
			c-4.3375854,0.7926483-7.1581116-2.5677338-9.2632294-5.7814178c-4.2145386-6.4343643-7.451828-13.507431-9.5667572-20.9027405
			c-1.5994568,2.1978455-3.3604584,4.5182266-5.9337921,5.3936462c-2.5733948,0.8754196-6.0783844-0.5650482-6.2341003-3.2787628
			c-3.2458038,3.2539978-5.0472107,7.7775497-9.3179474,10.1358185c-1.5927734,0.8795166-3.4707794,1.2193604-5.2251129,0.7369308
			c-4.5127563-1.2409668-5.3582611-6.5910263-5.5854645-10.9976273c-0.1568451-3.0418396-0.313797-6.0835724-0.4704742-9.1255188
			c-0.1377106-2.6728745-1.1367798-3.4424515-3.7123108-2.381958c-12.4082336,5.1089325-22.0954285,17.1648865-25.233551,30.0771179
			c-0.7497864,3.0852509-1.3154755,6.5159454-3.7332458,8.5737305c-2.4177856,2.0578003-7.3157196,0.9760284-7.2010574-2.1968842
			c-1.5910034,4.7306519-3.2415619,9.573349-6.5442581,13.3554993c-0.6333389,0.7252808-1.3768158,1.364502-2.2515793,1.7669373
			c-3.035553,1.3964691-5.0286865-0.6535797-6.3713379-2.7191772c-1.4000549-2.1539001-2.0794525-4.6017761-3.0222015-6.9605865
			c-1.4981461,5.6432495-1.6236038,11.5214691-1.8607101,17.3200226c-0.230217,5.6298218-0.6455383,11.2809601-0.6251068,16.9181366
			c0.0095749,2.6414795-0.4559021,5.5272675,0.4195023,8.1196899c0.6807327,2.0162048,2.1164398,3.6826935,3.6240997,5.1843109
			c4.6692963,4.650589,10.3708115,8.2591858,16.5723648,10.4888c-3.1294022-18.6970825,5.3813477-38.8495026,20.9653931-49.6434326
			c15.5839844-10.7939301,37.4420776-11.675766,53.8450317-2.1724091s26.5095825,28.9045868,24.8966064,47.7929535
			c0.0331421-0.3880005,2.8448944-1.7964935,3.2657623-2.0789642c1.0716095-0.7193298,2.1257935-1.4645233,3.1614227-2.2346344
			c2.1360626-1.5884399,4.193222-3.2828217,6.1615143-5.0748291c3.3668671-3.0653687,8.0790863-6.934082,9.7151031-11.3036957
			c0.5076904-1.3561096,0.5971222-2.8269501,0.681366-4.2724304c0.5419617-9.3002167,1.0839081-18.6004333,1.6259155-27.9007568
			c4.4917755,3.8110809,9.8885803,6.5483246,15.6171875,7.9208984c1.6252136,0.3894043,3.455719,0.6523285,4.7200317-0.9356079
			C272.8538818,151.635849,272.9237366,149.6311646,272.1108093,148.0046692z"/>
		<path class="st1" d="M249.1647186,119.3479614c-1.0880127-5.0970154-3.1577454-10.0272446-6.456665-14.0956726
			c-1.7638855-2.1753387-3.8451538-3.9870605-6.1347656-5.5864029c-2.0720978-1.447403-4.3239136-2.9745636-5.2079468-5.4674072
			c-0.5794067-1.6338806,0.3779755-2.552742,1.976059-2.5960388c0.1882782-0.0224457,0.3778992-0.0209503,0.5675049,0
			c2.4608765,0.0512161,5.7921295,0.7586746,6.7094574,0.7250977c0.359024-0.0130386,0.7354126-0.0398788,1.0391083-0.2317886
			c0.5094452-0.3220291,0.6556091-1.0330124,0.4898376-1.6124954c-1.0832214-3.7854309-8.1238403-7.1128387-11.3720703-8.5818558
			c-5.093811-2.3039093-9.7030792-2.4534836-15.1148987-2.8745117c-2.5215912-0.1962967-3.7570496-0.843132-1.2565308-3.5676498
			c0.6420288-0.6995468,4.626709-3.664299,3.1840363-4.8418579c-0.6077576-0.4960861-1.4935455-0.3735657-2.2640228-0.2245255
			c-4.0855408,0.790535-4.4316864,3.0574493-8.8900452,1.8483505c-10.6874847-2.8983612-21.4816284-4.9143524-32.6459656-4.1034012
			c-5.8264465,0.423172-11.5115356,1.4677277-16.830719,3.8981247c-2.8990021,1.3246765-5.806076,2.0061493-8.6491547,1.6876526
			c-1.754425,0.1038132-3.2087402-0.111084-4.6483002,0.1488266c-3.6193848,0.6535721-9.0211639,2.1208725-11.1721954,5.3953552
			c-2.7276154,4.1523666,2.0495148,3.4039612,4.7847137,2.6496811c2.0384521-0.5620575,4.0541687-1.2029037,6.0799408-1.8072968
			c0.3875122-0.1156769,0.6845245-0.1372757,0.9552917,0.1917038c-1.9510345,3.1265106-7.107132,5.4720154-10.0972137,7.7106018
			c-3.4772491,2.6033783-6.8909988,5.3848801-9.614502,8.7954712c-5.8055344,7.2704315-9.8289108,15.4789429-12.3701706,24.3954391
			c-1.8372269,6.4464417-2.6986465,13.0047226-1.4010696,19.7000656c0.6642609,3.4275818,1.9847717,6.7259064,4.0519714,9.5523224
			c0.2581482,0.3528137,0.539978,0.7090607,0.9294662,0.907486c4.8112335,2.4519958,9.1027451-17.2297821,9.5954666-19.9862671
			c0.1295776-0.724884,0.1761932-1.4782104,0.5377274-2.1513367c0.3953171-0.7360077,0.8349533-0.8948822,1.4166794-0.1756592
			c2.0003815,2.4733582,1.0402832,6.0736237,2.3781128,8.8428345c0.2093811,0.4334259,0.5063934,0.8903809,0.9764557,0.9938812
			c0.7167053,0.1578064,1.2918549-0.5709381,1.6472321-1.2130585c2.2160339-4.0037537,3.1780548-8.3694153,4.9633789-12.5340805
			c3.4604645-8.0725098,8.91745-14.6103668,15.8139496-19.9828491c3.9465027-3.0744476,8.0980682-5.7993927,12.9071045-7.3643036
			c1.9281158-0.627594,5.3674622-1.5926056,7.0452271-0.3087692c-0.8424988,1.8309174-1.558136,3.5338593-1.9231415,5.5683441
			c-0.806839,4.4973831-1.5148163,9.1072388-0.7761536,13.616272c0.3020935,1.8440704,0.9242401,3.7698212,2.3948517,4.9227982
			c2.7669525,2.1693039,5.6401367-0.5649414,7.2596283-2.7440872c3.6551056-4.917984,6.1992645-10.5395737,9.7141418-15.5524979
			c0.2679291-0.3821106,0.5769653-0.7883911,1.0297089-0.9017181c0.6328278-0.1582336,1.2767181,0.3615799,1.4872284,0.979126
			c0.8182831,2.400238-3.6473389,10.2116699,0.1802673,11.2613602c1.8742676,0.5140457,9.3359833-10.339859,8.8735199-10.8298492
			c0.2088013,0.1769409,0.2928925,0.4021072,0.3379517,0.6709976c1.5933533,9.521637,5.3935394,19.5581741,10.5577545,27.5212021
			c0.8311615,1.281601,1.8157959,2.4558411,3.1878357,3.2213593c2.3737793,1.3243561,4.563446,0.7158966,5.840332-1.6630707
			c0.3665619-0.6828613,0.6850586-1.4124451,0.8898621-2.1578674c1.8395233-6.695015,1.7837677-15.2601929-0.4621429-21.8411331
			c-0.412796-1.2096329,0.0691223-1.791893,1.2712708-1.4860077c1.9085388,0.4853897,3.6109467,1.3650894,4.9028015,2.9072342
			c1.928009,2.301239,3.2902069,4.9519806,4.5458221,7.6437836c3.7421265,8.0226898,5.4017639,16.945282,9.6895905,24.7127686
			c0.2528534,0.4580231,0.6426239,0.9792328,1.160141,0.9020386c0.3167419-0.0471497,0.5501862-0.3116608,0.7496338-0.5621643
			C249.4648743,136.8058167,250.9746246,127.8267975,249.1647186,119.3479614z"/>
		<path class="st0" d="M172.6271515,212.7594604c-2.3141022,0.106781-4.7212372,0.0097351-7.1381226,0.1871185
			c-3.1218414,0.2290955-6.2293243-0.2526245-9.2206726-1.1955872c-4.9593048-1.5633545-10.08255-2.4277191-15.1088409-3.6921997
			c-3.0834503-0.7757111-6.0476074-2.0213776-9.0744324-3.0286865c-1.0346527-0.3443451-1.4360962-1.1357117-1.5857544-2.0940094
			c-2.2637177-14.4953613,1.0131378-27.4653473,10.5980835-38.7346039
			c7.5111847-8.8310547,16.9445953-14.2131653,28.417984-15.8766022c8.3743591-1.2141113,16.5969391-0.5233459,24.5071106,2.6509857
			c5.1177063,2.0537415,9.6992798,5.0127411,13.792923,8.6965485c5.9906616,5.3909302,10.527298,11.7815704,13.1003113,19.4777222
			c1.2865448,3.8481445,2.0126495,7.8003387,2.4387207,11.8419189c0.2824554,2.6794281-0.0188446,5.3240662,0.0392914,7.9837799
			c0.030899,1.4142151-0.8574066,2.3195343-2.0958557,2.8885956c-7.835495,3.600235-15.9015961,6.5638428-24.2394562,8.7776184
			c-1.7657623,0.4688416-3.5908356,0.7002716-5.3863831,0.7302856c-3.0613403,0.0511932-6.0442963,0.6349792-9.0587921,0.9902802
			C179.3220062,212.7505646,176.0269012,212.8192749,172.6271515,212.7594604z"/>
		<path class="st2" d="M128.6102753,263.4309387c1.6490784,3.1190186,3.6942444,5.6440735,6.2285614,7.769104
			c2.1356659,1.790741,4.1454773,1.3830261,5.4568939-1.1085815c1.2988434-2.4677124,1.6394501-5.2209778,2.3339996-7.8684692
			c0.1503906-0.5733032,0.0872192-1.1836853,0.1947327-1.7655029c0.0990906-0.5362854,0.6645355-1.4713745,1.1811981-0.7261353
			c0.2589417,0.3735352,0.2537384,0.964325,0.3571777,1.400238c0.4242706,1.7879639,1.2923126,3.9482117,3.0833893,4.7586365
			c1.6017303,0.7247314,3.3621979,0.0264893,4.6908112-0.9437866c1.3857727-1.0120239,2.5594177-2.3390198,3.5923157-3.6999207
			c0.5344849-0.7042236,0.9833527-1.4669495,1.4801636-2.1972961c0.4932556-0.7251282,1.2097626-1.6219482,1.8166656-0.4807129
			c0.581131,1.0927734,0.504425,2.4313049,0.8132629,3.60495c0.4248505,1.6144104,0.8524323,3.2344666,1.5037231,4.7755737
			c1.2878571,3.0488586,3.0336914,6.1799927,5.7883453,8.1363525c3.355484,2.3830566,5.3338318-1.3231506,6.2796326-4.1246033
			c0.6273346-1.8581238,0.8735504-3.8236389,1.5061951-5.6770325c0.4561615-1.3364258,0.9510193-2.4631958,1.1508331-3.3947449
			c0.0614624-0.2865295,0.4469452-0.3241577,0.5614166-0.0543823c0.8330994,1.9633179,1.8123779,3.9858093,3.5042877,5.2720337
			c1.500473,1.140686,2.9452209,1.2288818,4.5994568,0.3557434c2.044693-1.0792236,3.4818115-2.4428711,4.6921082-4.4259338
			c0.7755432-1.2706909,1.4478912-2.5996094,2.151947-3.9109192c0.3749847-0.6989746,0.6500549-1.4473267,1.0410767-2.139801
			c0.2186279-0.3871765,0.897644-1.4905548,1.4530792-1.335083c0.7662506,0.2144775,0.8098297,2.3703918,0.9781342,2.9860229
			c0.3846741,1.4071045,0.7516022,2.8189697,1.127594,4.2283936c0.7516479,2.817627,1.5356445,5.6311646,2.5471344,8.3684998
			c0.7269897,1.9674377,1.6689606,4.4446716,3.5046692,5.6471252c3.0373535,1.9894104,6.2657623-1.055542,7.881897-3.4021301
			c0.8248596-1.1976624,1.038208-1.7350159,3.5680084-6.8676758c0.2849731-0.578186,0.6863708-1.5593262,1.4290466-1.2331543
			c0.7870789,0.3456421,1.1763306,1.8979797,1.7758636,2.5014343c0.9604492,0.9666748,2.1591187,1.3937683,3.4907532,0.9567566
			c3.5524445-1.1658325,5.2373199-6.717041,6.4186707-9.8441162c0.453125-1.1994324,0.8367004-2.4389954,1.6057587-3.5990906
			c0.9077301,2.6500549,1.5566711,5.2836609,2.8722534,7.6661072c0.4512329,0.8171692,0.8996429,1.6679382,1.71492,2.151062
			c0.7054596,0.4180298,0.4677734,0.7116089,0.0993958,1.1842041c-5.0541534,6.4841003-11.3307495,11.3166199-19.0899658,14.1380615
			c-0.7519073,0.2734375-1.078537,0.5062866-0.9342651,1.4580688c0.8835602,5.8291016,1.1868744,11.6872559,0.2997284,17.5459595
			c-0.7464447,4.9295044-2.4298553,9.4008179-6.429184,12.7203674c-4.1935272,3.4807434-10.6494598,2.6469116-13.7417145-1.8772888
			c-2.4129028-3.5302429-2.8847198-7.7096558-3.219635-11.8765259c-0.2431183-3.0247498-0.0740051-6.0558472,0.2287903-9.0752258
			c0.1152039-1.1486511-0.401474-0.9788513-1.094223-0.8598328c-3.9688721,0.6818237-7.9682465,0.9348145-11.9916382,0.8581543
			c-4.6657257-0.0889282-9.2658844-0.640686-13.730072-2.0481262c-0.7965088-0.2511292-0.9100494-0.0561523-0.9087982,0.6917419
			c0.0081482,4.8825989-0.3620758,9.7262573-1.7634735,14.43573c-0.7365723,2.4751892-1.7906036,4.7816467-3.5404816,6.7485046
			c-2.8192139,3.1687622-9.2879944,4.175293-13.4100189,0.2932434c-3.0402374-2.8633118-4.5257416-6.4682312-5.1392975-10.5003967
			c-0.9664764-6.3514404-0.1329956-12.5992432,1.1935272-18.8038025c0.1663208-0.7778931-0.0196991-1.114624-0.6500244-1.5006409
			c-4.6356659-2.8391113-8.590744-6.4836731-12.2747345-10.4476318c-0.4037781-0.4344788-0.475029-0.6799927-0.0025787-1.1401367
			C127.8480148,266.2189026,128.1110535,264.901062,128.6102753,263.4309387z"/>
		<path class="st2" d="M298.8465881,100.9333954c-0.0660095,7.0169144-1.3421021,13.9156418-5.4299622,18.1208801
			c-7.621582,7.8404617-21.3446655,7.9997101-31.5405579,8.3945618c-2.2938232,0.088829-4.6023254-0.1622696-6.9023743-0.290329
			c-1.1362457-0.0632706-1.6663208-0.752182-1.8656464-1.8461533c-0.4340363-2.3821716-0.459259-4.8049088-0.7824707-7.1961594
			c-0.7273712-5.3808594-3.1824493-9.9937439-6.3716888-14.2779541c-0.2882385-0.3872375-0.5991516-0.7639236-0.8366852-1.181282
			c-0.5110016-0.8979492-0.270401-1.4271088,0.746048-1.539772c2.3250885-0.2577133,4.6572571-0.4508514,6.983902-0.6957703
			c9.1129913-0.9593124,20.2877655-1.7849579,25.0809174-11.0127335c4.0614319-7.8194885,1.7435608-20.427597-0.5014343-28.5808678
			c-1.5311279-5.5606461-4.2704163-10.420372-8.5026855-14.3904877c-0.4530029-0.4249496-0.8626404-0.8767853-0.5827637-1.5461349
			c0.3068237-0.7338257,0.9899597-0.8184395,1.6773376-0.8603401c17.3634033-1.0574913,25.2745667,27.0381851,27.3166199,40.0743332
			C298.0528564,88.6870575,298.9037781,94.8545761,298.8465881,100.9333954z"/>
		<path class="st2" d="M117.5298691,100.8557968c-1.4794312,2.8994827-2.8895493,5.5886612-4.0959244,8.3787613
			c-1.2084274,2.7948532-2.399437,5.5987549-3.2132263,8.5333328c-0.5445557,1.9636765-1.8654938,2.8329086-3.7336121,2.9009018
			c-7.2424469,0.2635956-14.4419632,1.211441-21.6913147,1.336113c-4.356514,0.0749359-8.6620407-0.1871338-12.8847427-1.4668198
			c-6.1249084-1.8561172-9.9833527-6.5116501-10.7350006-12.8414688c-1.811348-15.253746,2.739975-28.5767365,12.0248642-40.5235748
			c5.0440903-6.4902229,10.6423416-12.4152145,17.39534-17.1638641c2.7627716-1.9427528,5.6406708-3.6846962,8.947731-4.5918045
			c0.6790161-0.1862526,1.3006821-0.316555,1.8271942,0.2493362c0.5227127,0.5618019,0.6320877,1.2430954,0.4206238,1.9747925
			c-0.2146378,0.7426987-0.7352219,1.2771873-1.2478333,1.8170929c-4.8747101,5.1342773-9.3574448,10.5691681-12.8896866,16.7387161
			c-2.7001953,4.7162628-4.6411667,9.698143-5.3574066,15.1150665c-0.8637543,6.5325928,1.3001175,11.782608,6.7589035,15.5321808
			c3.657486,2.5122833,7.8401413,3.6660995,12.1876755,4.2487717
			C106.6100082,101.8125763,111.9760895,101.7705154,117.5298691,100.8557968z"/>
		<path class="st1" d="M107.7325974,138.5116425c0.1609497-0.1918335,0.3067169-0.3883209,0.4339294-0.5897675
			c-0.0018158-2.5084381,0.0003204-5.016449-0.0118179-7.5242462c-0.0058823-1.2166901-0.1773148-1.3421021-1.3046799-0.9408569
			c-6.3990784,2.277298-11.4396973,6.2196808-14.8458481,12.1543121c-0.3882065,0.6764526-0.728035,1.3832703-1.1531296,2.0350342
			c-0.3468323,0.5317841-0.8720551,0.5082703-1.3729019,0.2053833c-0.4837341-0.2924194-0.443161-0.7104492-0.2244644-1.162384
			c1.8880157-3.9012299,4.4541321-7.2703247,7.8437119-9.9911041c2.9256744-2.3482819,6.1491089-4.1412506,9.7472839-5.2493134
			c1.1632919-0.3582764,1.7373123-1.2605286,1.5222015-2.2458572c-0.0961151-0.4399567-0.2815094-0.769577-0.8365021-0.6317596
			c-0.7886047,0.1957626-1.6020126,0.3114395-2.3706284,0.5649338c-7.3936005,2.4388428-13.7101898,6.5439453-18.9196243,12.3329773
			c-1.7819061,1.9800568-3.2616577,4.1442413-3.8565369,6.8053436c-0.3911972,1.7499847,0.3205872,3.3205719,1.8863602,3.9448547
			c1.2232666,0.4876404,2.5279999,0.6790161,3.8293686,0.4611206c3.092247-0.5177917,6.0452957-1.4766083,8.8654404-2.8702393
			c2.0716934-1.0237732,4.0359344-2.2490234,5.9224625-3.5806885
			C104.3811035,141.174881,106.5011215,139.9794922,107.7325974,138.5116425z"/>
		<path class="st2" d="M176.7636261,182.7957001c2.094986-0.2735901,5.5284576-0.8381042,8.687088-2.4745026
			c5.8031158-3.0064697,11.1881561-6.6356506,16.2294464-10.7922974c1.7017365-1.4031219,2.7402954-3.1975555,3.3874969-5.242691
			c0.4584656-1.448761-0.2058258-2.8027039-1.5717773-3.3946075c-2.3849182-1.0333862-4.7194824-0.9584351-7.0970612,0.1467743
			c-4.3668518,2.0299072-8.3351746,4.6795807-11.9227142,7.8429108c-2.8091736,2.477005-5.3398285,5.2745819-7.3959198,8.4307709
			c-1.2295837,1.8874969-1.2044067,2.0017242-2.7414398,0.4206696c-4.8003845-4.9378357-10.6544495-7.9390106-17.2935638-9.4804382
			c-1.2875366-0.2989349-2.6642609-0.1902008-3.9832916-0.382782c-1.7527924-0.2559204-3.5648041,0.6743774-4.6351318,2.5066071
			c-0.6907196,1.1824188-0.3444672,2.7374115,0.9276581,4.1112976c1.5801086,1.7065125,3.511734,2.8979187,5.6137848,3.851059
			C161.4564362,181.2804718,168.3057556,182.6011047,176.7636261,182.7957001z"/>
		<path class="st2" d="M196.57547,142.4487305c3.0661011,0.1684113,5.5007935-1.9309387,5.6642303-4.88414
			c0.1801147-3.2541199-1.9554749-5.7687225-5.0681458-5.9676208c-2.9425201-0.1880188-5.624176,2.2507172-5.7653961,5.2431335
			C191.2637329,139.8582153,193.4953918,142.2795563,196.57547,142.4487305z"/>
		<path class="st2" d="M162.4081116,135.5078583c0.1394196-3.0512848-2.0974731-5.5376587-5.1091614-5.6789246
			c-3.0071106-0.1410675-5.5746918,2.1427307-5.7371521,5.1030273c-0.1707458,3.1112518,2.0656586,5.5478516,5.230957,5.6992188
			C159.893692,140.77948,162.2661285,138.6149139,162.4081116,135.5078583z"/>
		<g>
			<g>
				<path d="M187.8970337,200.931488c-5.9290771,0.0004578-9.9892883-4.6832123-11.6503143-7.0289612
					c-4.4964294,7.9992981-11.7050629,7.6305847-15.0391083,6.218811c-0.4507446-0.1901093-0.6722717-0.7374115-0.495224-1.2221222
					c0.1761932-0.4842529,0.6833954-0.7203827,1.1341553-0.5335083c0.3609467,0.1514435,8.7533417,3.5048218,13.5337372-6.6689911
					c0.1445465-0.3079376,0.434494-0.5054169,0.7543793-0.5164642c0.3558197-0.0193329,0.6209717,0.1684723,0.7834778,0.4653778
					c0.0128326,0.0248566,1.3881836,2.5160522,3.8600616,4.5892944c3.2245636,2.705719,6.7322235,3.4670715,10.4195099,2.2642822
					c0.4653015-0.152832,0.9519806,0.1311798,1.0922394,0.6287842c0.140274,0.4985199-0.1214447,1.0246582-0.5841827,1.1756287
					C190.362915,200.7413788,189.0919189,200.931488,187.8970337,200.931488z"/>
			</g>
			<g>
				<path d="M176.1620331,193.0647736c-0.4841156,0-0.8758392-0.4221191-0.8758392-0.9427185v-9.76828
					c0-0.5205994,0.3917236-0.9427032,0.8758392-0.9427032s0.8758545,0.4221039,0.8758545,0.9427032v9.76828
					C177.0378876,192.6426544,176.6461487,193.0647736,176.1620331,193.0647736z"/>
			</g>
		</g>
	</g>
</g>
<g id="Layer_3">
</g>
</svg>
